<?xml version="1.0" standalone="no"?><!DOCTYPE svg PUBLIC "-//W3C//DTD SVG 1.1//EN" "http://www.w3.org/Graphics/SVG/1.1/DTD/svg11.dtd"><svg t="1520942625736" class="icon" style="" viewBox="0 0 1120 1024" version="1.1" xmlns="http://www.w3.org/2000/svg" p-id="2555" xmlns:xlink="http://www.w3.org/1999/xlink" width="218.75" height="200"><defs><style type="text/css"></style></defs><path d="M560.457814 308.026412c217.121056 0 420.719002-48.082172 506.36537-107.433602a80.387381 80.387381 0 0 0-9.766691-136.733676C956.384446 12.020543 751.283933 0 560.457814 0S175.049156 12.020543 75.128393 63.859134a80.387381 80.387381 0 0 0-10.517975 137.48496C150.256787 260.695525 343.336757 308.026412 560.457814 308.026412zM833.173881 751.283933a380.900954 380.900954 0 0 0-111.941306 249.426265c217.87234-37.564197 397.4292-172.044021 397.4292-370.382979a525.898753 525.898753 0 0 0-285.487894 120.956714zM285.487894 751.283933a380.900954 380.900954 0 0 1 111.941306 246.421129C180.308144 963.146001 0 826.412326 0 630.327219A525.898753 525.898753 0 0 1 285.487894 751.283933z" fill="#ffffff" p-id="2556"></path><path d="M792.604549 719.730007a572.478357 572.478357 0 0 1 327.559794-141.992663V223.882612v-23.289802c-87.148936 95.413059-300.513573 160.023478-558.955245 160.023478S88.651504 296.005869 0 200.59281v377.144534a572.478357 572.478357 0 0 1 327.559795 141.992663 400.434336 400.434336 0 0 1 115.697725 295.254586 769.314747 769.314747 0 0 0 116.44901 9.015407A773.82245 773.82245 0 0 0 676.155539 1014.984593a400.434336 400.434336 0 0 1 116.44901-295.254586z" fill="#ffffff" p-id="2557"></path></svg>