<?xml version="1.0" standalone="no"?><!DOCTYPE svg PUBLIC "-//W3C//DTD SVG 1.1//EN" "http://www.w3.org/Graphics/SVG/1.1/DTD/svg11.dtd"><svg t="1520942659435" class="icon" style="" viewBox="0 0 1024 1024" version="1.1" xmlns="http://www.w3.org/2000/svg" p-id="3105" xmlns:xlink="http://www.w3.org/1999/xlink" width="200" height="200"><defs><style type="text/css"></style></defs><path d="M351.261923 1024h453.97424a225.604738 225.604738 0 0 0 32.624215-101.743313c13.82382-175.838987-171.415365-276.476395-171.415365-276.476395C738.328876 628.085803 738.328876 536.29564 738.328876 536.29564A1373.534729 1373.534729 0 0 1 607.279065 448.376146C524.889099 387.551339 531.524533 305.714326 562.489889 301.843657s38.153742 18.800395 72.436815 24.882875c25.988781 4.423622 29.859451-13.82382 27.64764-22.118111s12.164961-13.82382 16.035631-19.353348-4.423622-15.482678-4.423623-15.482678 14.929725 0 12.164962-12.717914a12.164961 12.164961 0 0 1 5.529528-13.82382 39.259648 39.259648 0 0 0 21.565158 0s16.035631-15.482678-7.741339-32.624214a44.789176 44.789176 0 0 1-11.059055-49.765751h25.988781A125.520283 125.520283 0 0 0 642.668043 25.367262 165.885837 165.885837 0 0 0 481.205829 17.07297 95.10788 95.10788 0 0 0 402.13358 5.460962c-89.025399 37.60079-86.813588 165.885837-75.754532 257.123047s-82.389966 44.236223-82.389966 44.236223a101.19036 101.19036 0 0 0 96.766738 55.295279C461.852481 352.162361 432.545983 205.076919 432.545983 205.076919c14.929725 10.506103 55.295279 55.295279 29.306498 89.578352C389.968619 387.551339 306.472747 472.706069 306.472747 472.706069a1487.995957 1487.995957 0 0 0-115.567133 171.415365c-8.847245 12.164961-8.847245 26.541734 8.847245 55.295279s199.615957 236.110841 199.615957 236.110841a171.968318 171.968318 0 0 0-48.106893 88.472446z m259.887811-226.710644a43.130318 43.130318 0 0 1 60.271854 22.671065 43.130318 43.130318 0 0 1 60.271854-22.671065c41.471459 21.012206 22.671064 91.790163-60.271854 132.70867-84.601777-40.918506-103.402172-111.696463-61.930712-132.70867z m-331.771673-116.120085s-12.717914-3.87067 0-27.094687a630.36618 630.36618 0 0 1 71.330909-80.178155s12.164961-8.294292 21.565159 8.294292a1329.851459 1329.851459 0 0 1 82.942919 170.309459c10.506103 38.706695-37.60079 125.520283-37.60079 125.520284z" fill="#727171" p-id="3106"></path></svg>