<?xml version="1.0" standalone="no"?><!DOCTYPE svg PUBLIC "-//W3C//DTD SVG 1.1//EN" "http://www.w3.org/Graphics/SVG/1.1/DTD/svg11.dtd"><svg t="1520942560308" class="icon" style="" viewBox="0 0 1024 1024" version="1.1" xmlns="http://www.w3.org/2000/svg" p-id="1588" xmlns:xlink="http://www.w3.org/1999/xlink" width="200" height="200"><defs><style type="text/css"></style></defs><path d="M846.618548 518.646548a80.124504 80.124504 0 0 1-23.974262 9.463525 52.364834 52.364834 0 0 1-10.725327 23.974261c-37.223195 46.055818-155.201796 15.77254-258.038758-69.399177S396.154798 288.998362 434.008895 243.573446a51.733932 51.733932 0 0 1 21.450654-15.141638 79.493603 79.493603 0 0 1 4.416312-25.866966 78.2318 78.2318 0 0 0-44.163113 25.866966c-47.317621 57.412047 7.570819 176.652451 126.180322 271.918594s244.158923 126.180322 290.845642 66.87557a78.862701 78.862701 0 0 0 13.879836-48.579424z" fill="#d4237a" p-id="1589"></path><path d="M370.918734 1023.998738a198.103106 198.103106 0 0 1-126.180322-44.794014L128.652515 883.307679a200.626712 200.626712 0 0 1-28.390572-280.120315l179.176057-218.922858a198.734007 198.734007 0 0 1 133.751141-71.922784h12.618033l3.785409 11.987131a387.373589 387.373589 0 0 0 126.180322 160.87991 386.742687 386.742687 0 0 0 182.330566 88.957127h12.618032v12.618032a198.734007 198.734007 0 0 1-44.163113 145.107371l-181.068762 218.922858a198.734007 198.734007 0 0 1-135.012944 72.553686z m33.437785-678.850132a167.819828 167.819828 0 0 0-100.313356 59.304751L124.867106 623.376216a169.712533 169.712533 0 0 0 23.974261 237.849907l114.824093 93.373438a169.712533 169.712533 0 0 0 237.849907-23.974261l178.545156-218.291957a167.819828 167.819828 0 0 0 37.854096-110.407782 428.382193 428.382193 0 0 1-184.854172-94.00434 429.643997 429.643997 0 0 1-128.703928-162.772615z" fill="#d4237a" p-id="1590"></path><path d="M623.279378 699.715311a217.661056 217.661056 0 0 1-17.665245 26.497867A219.55376 219.55376 0 0 1 295.21054 757.127357l-92.111635-75.708193a215.768351 215.768351 0 0 1-46.055817-50.472129 157.094501 157.094501 0 0 0 22.081556 220.815564l90.21893 73.815488a157.094501 157.094501 0 0 0 220.815564-22.081556l97.789749-119.871306A156.463599 156.463599 0 0 0 623.279378 699.715311zM817.597074 325.590656c-25.866966-46.055818-20.819753-53.626637-20.819754-53.626637s11.987131-36.592293 91.480734-53.626637A111.038683 111.038683 0 0 0 938.730183 36.006817a15.77254 15.77254 0 0 0-24.605163-20.188852 111.669585 111.669585 0 0 0-168.45073 85.171718c0 81.386308-34.068687 100.313356-34.068687 100.313356s-6.309016 6.309016-56.781145-9.463525c-80.124504-40.377703-153.939993-46.055818-184.854172-7.570819-42.901309 52.364834 10.725327 166.558025 118.609503 252.360644s230.909989 117.978601 273.180397 63.090161c31.545081-32.806884 13.879835-104.098766-44.163112-174.128844z m-308.510888-126.180322A75.077292 75.077292 0 0 0 484.481023 252.406069c-15.77254-43.532211 5.678114-59.304751 5.678115-59.304751 30.283277-37.223195 126.180322 0 126.180322 0-56.150243-14.510737-87.064422-10.094426-107.253274 7.570819z m266.871381-86.433521a89.588029 89.588029 0 0 1 9.463524-50.472129 82.648111 82.648111 0 0 1 107.253274-32.806883 137.536551 137.536551 0 0 0-116.716798 84.540815zM644.730032 441.676552a324.914329 324.914329 0 0 0 155.832698 47.948522 76.969996 76.969996 0 0 0 48.579424-19.55795S818.227975 559.024252 644.730032 441.676552z" fill="#d4237a" p-id="1591"></path></svg>