<?xml version="1.0" standalone="no"?><!DOCTYPE svg PUBLIC "-//W3C//DTD SVG 1.1//EN" "http://www.w3.org/Graphics/SVG/1.1/DTD/svg11.dtd"><svg t="1520942592299" class="icon" style="" viewBox="0 0 1024 1024" version="1.1" xmlns="http://www.w3.org/2000/svg" p-id="1958" xmlns:xlink="http://www.w3.org/1999/xlink" width="200" height="200"><defs><style type="text/css"></style></defs><path d="M632.310826 420.617722a28.516456 28.516456 0 0 0-23.979746 11.665822 50.551899 50.551899 0 0 0-9.073418 31.756962h64.810126a50.551899 50.551899 0 0 0-7.129113-32.405063 25.924051 25.924051 0 0 0-24.627849-11.017721zM750.913358 422.562025a24.627848 24.627848 0 0 0-22.035443 13.610127 69.994937 69.994937 0 0 0-6.481013 36.293671 60.921519 60.921519 0 0 0 7.777216 34.349367 24.627848 24.627848 0 0 0 19.443038 11.665823 24.627848 24.627848 0 0 0 17.498734-6.481013 43.422785 43.422785 0 0 0 11.017721-20.091139v-54.440507a27.220253 27.220253 0 0 0-12.313924-11.017721 36.941772 36.941772 0 0 0-14.906329-3.888608zM264.189307 422.562025a24.627848 24.627848 0 0 0-22.035443 13.610127 69.994937 69.994937 0 0 0-7.777215 35.64557 60.921519 60.921519 0 0 0 7.777215 34.349367 24.627848 24.627848 0 0 0 20.739241 12.313924 24.627848 24.627848 0 0 0 17.498734-6.481013 43.422785 43.422785 0 0 0 11.017722-20.091139v-54.440507a27.220253 27.220253 0 0 0-12.313924-11.017721 36.941772 36.941772 0 0 0-14.90633-3.888608z" fill="#bfbfbf" p-id="1959"></path><path d="M511.763991 0C305.667788 0 139.105763 47.959494 139.105763 106.936709v810.126582c0 58.977215 166.562025 106.936709 372.658228 106.936709s372.658228-47.959494 372.658228-106.936709V106.936709C883.774118 47.959494 717.212092 0 511.763991 0z m-194.43038 518.481013H303.723485l-10.369621 4.536709v-16.850633a38.237975 38.237975 0 0 1-12.962025 14.258227 33.053165 33.053165 0 0 1-18.794937 5.184811 38.237975 38.237975 0 0 1-29.812658-14.258228 60.273418 60.273418 0 0 1-12.313924-40.83038 58.329114 58.329114 0 0 1 13.610127-40.182278 39.534177 39.534177 0 0 1 47.311392-11.665823 28.516456 28.516456 0 0 1 12.962025 10.36962v-51.2a15.55443 15.55443 0 0 0 0-8.425316 7.129114 7.129114 0 0 0-6.481012 0H275.207029v-8.425317h20.091139l9.721519-5.832911v148.41519a9.721519 9.721519 0 0 0 0 6.481012 7.129114 7.129114 0 0 0 5.18481 0h6.481013z m116.658228-81.012659a9.073418 9.073418 0 0 1-7.129114 0 7.777215 7.777215 0 0 1-8.425316-10.36962 10.36962 10.36962 0 0 0 0-4.536709h-5.832912a31.108861 31.108861 0 0 0-18.794936 9.721519 84.901266 84.901266 0 0 0-19.443038 26.572152v51.2a7.129114 7.129114 0 0 0 0 5.832912 9.721519 9.721519 0 0 0 6.481012 0h20.739241v5.832911H333.536143V518.481013h18.794937a9.073418 9.073418 0 0 0 6.481012 0 7.777215 7.777215 0 0 0 0-5.832912V430.987342a9.073418 9.073418 0 0 0 0-6.481013 8.425316 8.425316 0 0 0-7.129114 0H333.536143v-7.777215h23.979747l14.258228-3.240506v34.349367a82.308861 82.308861 0 0 1 20.73924-23.331646 36.941772 36.941772 0 0 1 22.035443-7.777215 22.683544 22.683544 0 0 1 14.906329 4.536709 12.962025 12.962025 0 0 1 5.18481 9.721519 11.665823 11.665823 0 0 1 0 5.832911z m109.529114 86.197469H472.877915V518.481013h20.091139a9.073418 9.073418 0 0 0 6.481013 0 7.777215 7.777215 0 0 0 0-5.832912V430.987342a9.721519 9.721519 0 0 0 0-6.481013 7.777215 7.777215 0 0 0-6.481013 0h-20.091139v-7.777215h25.924051a45.367089 45.367089 0 0 0 14.258228-5.18481v98.511392a6.481013 6.481013 0 0 0 0 5.832912 9.073418 9.073418 0 0 0 5.832911 0h20.091139z m-46.663291-152.951899a11.017722 11.017722 0 0 1 3.888607-8.425316 12.313924 12.313924 0 0 1 16.850633 0 11.017722 11.017722 0 0 1 3.888608 8.425316 12.313924 12.313924 0 0 1-3.888608 9.073418 11.017722 11.017722 0 0 1-16.850633 0 12.313924 12.313924 0 0 1-3.888607-9.073418z m112.76962 136.101266a33.701266 33.701266 0 0 0 25.924051 11.017721 31.756962 31.756962 0 0 0 22.035443-7.129114 40.83038 40.83038 0 0 0 12.313924-17.498734h4.536709A46.663291 46.663291 0 0 1 657.586776 518.481013a36.941772 36.941772 0 0 1-27.220253 9.721519 47.311392 47.311392 0 0 1-35.64557-14.258228 56.38481 56.38481 0 0 1-13.610127-40.83038 57.681013 57.681013 0 0 1 13.610127-39.534177 43.422785 43.422785 0 0 1 36.941772-18.794937 44.718987 44.718987 0 0 1 31.108861 12.313924 56.38481 56.38481 0 0 1 13.610127 42.774684H599.257662a53.792405 53.792405 0 0 0 10.36962 36.941772z m194.43038 11.017721H790.447535l-10.36962 4.536709v-16.202531a38.237975 38.237975 0 0 1-12.962025 14.258227 33.053165 33.053165 0 0 1-18.794937 5.184811 38.237975 38.237975 0 0 1-29.812658-14.258228 60.273418 60.273418 0 0 1-12.313924-40.83038 58.329114 58.329114 0 0 1 13.610126-40.182278 39.534177 39.534177 0 0 1 47.311393-11.665823 28.516456 28.516456 0 0 1 12.962025 10.36962v-51.2a15.55443 15.55443 0 0 0 0-8.425316 7.129114 7.129114 0 0 0-6.481013 0h-11.665822v-8.425317h20.091139l9.721519-5.832911v148.41519a9.721519 9.721519 0 0 0 0 6.481012 7.129114 7.129114 0 0 0 5.18481 0h6.481013zM511.763991 184.060759C288.817156 184.060759 168.918421 129.620253 168.918421 106.936709S288.817156 29.812658 511.763991 29.812658 852.017156 84.253165 852.017156 106.936709 734.062725 184.060759 511.763991 184.060759z" fill="#bfbfbf" p-id="1960"></path><path d="M273.910826 682.450633h17.498735v16.202532a31.108861 31.108861 0 0 1 10.36962-11.017722 23.979747 23.979747 0 0 1 12.313924-3.240506 22.683544 22.683544 0 0 1 13.610126 3.240506 14.906329 14.906329 0 0 1 5.832912 11.017722 29.812658 29.812658 0 0 1 11.017721-11.017722 26.572152 26.572152 0 0 1 12.962026-3.240506 17.498734 17.498734 0 0 1 15.55443 6.481012 31.108861 31.108861 0 0 1 4.536709 16.850633V777.721519a5.832911 5.832911 0 0 0 0 5.18481h5.832911v5.832912h-32.405063v-5.832912h5.832911a6.481013 6.481013 0 0 0 0-5.18481v-71.291139a26.572152 26.572152 0 0 0 0-13.610127 8.425316 8.425316 0 0 0-7.129113-3.240506 16.850633 16.850633 0 0 0-11.665823 4.536709 29.812658 29.812658 0 0 0-7.777215 13.610126V777.721519a6.481013 6.481013 0 0 0 0 5.18481h5.832911v5.832912H314.093105v-5.832912h5.832911a6.481013 6.481013 0 0 0 0-5.18481v-71.291139a33.053165 33.053165 0 0 0 0-12.962026 7.777215 7.777215 0 0 0-7.777215-4.536708 17.498734 17.498734 0 0 0-11.665823 4.536708 31.108861 31.108861 0 0 0-7.777215 14.258228V777.721519a6.481013 6.481013 0 0 0 0 5.18481h5.832912v5.832912H268.726016v-5.832912h5.832912a6.481013 6.481013 0 0 0 0-5.18481v-84.253165a7.129114 7.129114 0 0 0 0-4.536708 5.18481 5.18481 0 0 0-4.536709 0H268.726016v-5.832912zM444.361459 696.708861a9.721519 9.721519 0 0 0 0-6.481013 7.777215 7.777215 0 0 0-6.481012 0h-22.683545v-5.832911h25.924051a45.367089 45.367089 0 0 0 14.258228-5.18481V777.721519a6.481013 6.481013 0 0 0 0 5.832911 9.073418 9.073418 0 0 0 5.832911 0h20.091139v5.832912H415.196902v-5.832912h20.09114a9.073418 9.073418 0 0 0 6.481012 0 7.777215 7.777215 0 0 0 0-5.832911z m7.777216-71.939241a12.313924 12.313924 0 0 1 11.017721 2.592405 11.017722 11.017722 0 0 1 0 8.425317 12.313924 12.313924 0 0 1 0 12.313924 11.017722 11.017722 0 0 1-16.850633 0 12.313924 12.313924 0 0 1-3.888607-9.073418 11.017722 11.017722 0 0 1 3.888607-8.425316 12.313924 12.313924 0 0 1 5.18481-6.481013zM546.113358 626.065823a69.346835 69.346835 0 0 0 16.202532 0 58.329114 58.329114 0 0 0 14.258228-5.832912V777.721519a6.481013 6.481013 0 0 0 0 5.832911 9.073418 9.073418 0 0 0 5.832911 0h22.035443v5.832912H535.095637v-5.832912h22.035443a9.073418 9.073418 0 0 0 6.481012 0 7.777215 7.777215 0 0 0 0-5.832911V639.675949a7.777215 7.777215 0 0 0 0-5.832911 9.721519 9.721519 0 0 0-7.129114 0h-21.387341v-7.777215zM697.120953 720.688608l35.64557 55.736708 5.18481 5.184811h9.073417v5.832911h-38.886075v-5.832911a11.017722 11.017722 0 0 0 6.481012 0v-5.184811l-28.516456-46.015189-20.091139 20.091139V777.721519a6.481013 6.481013 0 0 0 0 5.832911 9.721519 9.721519 0 0 0 6.481013 0h4.536709v5.832912h-35.64557v-5.832912h4.536709a9.073418 9.073418 0 0 0 6.481013 0A7.777215 7.777215 0 0 0 657.586776 777.721519V639.675949a7.777215 7.777215 0 0 0 0-5.832911 8.425316 8.425316 0 0 0-6.481013 0h-9.721519v-7.777215h8.425317a22.683544 22.683544 0 0 0 9.721519 0 17.498734 17.498734 0 0 0 7.129114-5.832912v120.546836l40.182278-42.774684a10.36962 10.36962 0 0 0 0-6.481012H699.713358v-5.832912h40.182279v5.832912h-12.313924a21.387342 21.387342 0 0 0-8.425317 5.18481z" fill="#bfbfbf" p-id="1961"></path></svg>